<?xml version="1.0" encoding="UTF-8"?>
<svg id="Camada_1" data-name="Camada 1" xmlns="http://www.w3.org/2000/svg" viewBox="0 0 288.91 190">
  <defs>
    <style>
      .cls-1 {
        fill: #593f1f;
      }

      .cls-2 {
        fill: #fff;
      }

      .cls-3 {
        fill: #725128;
      }

      .cls-4 {
        fill: #e6e6e6;
      }
    </style>
  </defs>
  <path d="M288.78,114.49c-.15-1.01-.58-3.63-2.72-5.98-2.76-3.05-6.4-3.46-7.34-3.55-2.63-.61-5.76-1.56-9.12-3.12-2.07-.96-3.87-1.99-5.44-3,2.59-6.5,6.43-19.15,3.27-33.87-1.75-8.13-5.07-14.21-7.07-17.83-2.82-5.06-6.48-11.51-13.74-17.27-1.16-.92-5.23-4.06-11.29-6.67-6.42-2.76-11.9-3.57-15.65-4.08-4.06-.56-7.52-.68-10.06-.67-.62-1.82-1.69-4.26-3.54-6.8-2.32-3.18-4.89-5.21-6.67-6.4-1.99-1.34-4.77-2.87-8.29-3.94-6.86-2.08-12.8-1.23-15.92-.55-5.57.84-13.36,2.83-21.35,7.76-3.89,2.41-14.44,9.12-20.4,22.45-2.14,4.8-3.08,9.07-3.54,11.97-5.17,1.54-10.34,3.08-15.51,4.62-12.75,4.28-18.33,11.81-20.27,14.83-3.34,5.21-4.43,9.89-6.26,18.77-1.52,7.35-1.94,13.59-2.04,17.96-5.27.06-21.82.41-34.16,3.81-2.68.74-6.73,2.05-9.25,5.72-.38.55-3.37,5.02-1.77,8.16.85,1.66,2.49,1.99,2.72,3.81.17,1.37-.58,2.51-1.09,3.27-1.88,2.82-5.06,3.58-6.26,3.94-1.79.55-4.56,1.81-8.02,3.13-11.53,4.41-14.14,5.03-17.96,7.89-4.15,3.1-6.16,5.85-7.34,7.89-1.51,2.58-3.15,5.4-2.59,8.84.76,4.67,5.08,7.27,6.79,8.3,5.8,3.48,11.89,2.25,13.88,2.04,9.53-1.03,16.99,0,21.5-.13,1.27-.04,3.93-.12,6.66,1.36,1.65.9,2.75,2.06,3.4,2.86,1.58,2.35,4.32,5.81,8.71,8.71,1.58,1.04,4.67,2.86,11.02,4.49,4.29,1.1,11.88,2.57,27.07,1.63,9.92-.62,8.96-1.38,14.68-1.5,13.4-.28,17.72,3.92,30.47,6.12,6.64,1.14,15.86.36,34.28-1.23,3.4-.29,15.13-1.34,30.21-4.07,0,0,13.07-2.38,26.94-10.34,1.4-.81,3.89-2.34,5.3-5.3,1.48-3.12,1.04-6.28.67-7.89-.18-.81-1.38-6.28,2.18-11.02,2.39-3.18,5.62-4.29,6.8-4.62,4.06-1.24,7.47-2.43,10.06-3.4,4.51-1.67,7.9-2.94,12.11-5.17,3.86-2.04,6.04-3.19,8.57-5.57,3.92-3.7,5.52-7.38,5.84-8.16.91-2.16,2.01-4.78,1.5-8.17ZM152.71,32.12c1.64-2.82,3.4-4.8,4.49-5.92,2.59-2.66,5.06-4.2,6.33-5,.86-.54,1.75-1.03,2.65-1.53,2.24-1.24,3.35-1.86,4.69-2.45,3.84-1.67,7.15-1.99,8.81-2.14,1.41-.12,2.26-.1,3.02,0,1.7.21,2.92.73,4.08,1.23,1.1.46,2.6,1.12,4.29,2.44,1.76,1.38,2.99,2.92,3.82,4.23l-44.28,13.52c.46-1.2,1.13-2.72,2.1-4.38Z"/>
  <path class="cls-3" d="M279.25,123.2c-1.69,2.13-3.96,4.11-8.29,6.39-3.64,1.91-5.3,2.23-14.15,5.3-5.98,2.08-9,3.13-10.75,4.08-4.78,2.59-8.92,4.82-10.88,9.11-3.12,6.82-1.72,11.64-1.94,16.64-.16,3.87-6.56,5.95-9.11,6.87-8.94,3.21-13.4,3.89-14.39,4.11-10.33,2.26-18.78,3.37-23.4,3.94-5.43.67-16.06,1.87-29.79,2.45-12.52.54-17.36.12-22.31-.95-5.77-1.24-5.55-2.05-10.61-2.85-4.89-.78-7.34-.39-22.32.67-9.95.71-11.8.76-14.15.68-3.45-.1-8.85-.45-15.23-2.17-5.93-1.6-8.11-3.14-8.99-3.81-3.08-2.36-4.64-5.3-5.71-7.07-.7-1.17-2.6-3.27-5.72-4.77-3.07-1.47-5.85-1.61-7.21-1.5-7.17.64-15.54,1.54-24.89.82-3.26-.25-6.34-.62-9.25-1.09-4.01-1.14-5.21-2.76-5.57-3.95-1.73-5.52,10.66-13.67,13.88-15.78,6.16-4.05,12.04-6.86,17-7.75,1.6-.29,5.85-.68,9.66-3.95,2.31-1.97,3.82-4.07,4.22-5.57.24-.94.09-2.98-.95-5.17-.76-1.6-1.88-2.56-2.45-3.27-.38-.48-.72-1.51-.41-2.45.44-1.32,2.08-1.84,2.73-2.04,1.47-.47,11.61-4.22,15.61-5.17,5.33-1.27,13.16-1.94,21.8-2.32.08,1.21.17,2.37.3,3.5.62,5.63,1.85,10.25,2.97,13.65,1.38,4.17,3.53,10.46,8.71,17.14,3.71,4.79,7.62,8.02,10.48,10.06-.36.57-.88,1.26-1.63,1.9-.42.37-.85.66-1.27.91-1.35.78-2.64,1.04-3.35,1.13-1.13,0-1.84.82-1.77,1.36.06.5.8,1.04,1.77.95.97-.08,2.63-.34,4.35-1.36.48-.29.9-.61,1.28-.92,1.11-.94,1.8-1.99,2.39-2.89.72-1.09,2.07-3.12,2.45-5.99.32-2.44-.32-3.61.27-7.07.14-.82.3-1.48.41-1.9.89-.42,2.13-.98,3.63-1.57.28-.12.56-.22.86-.34.71-.27,3.84-1.43,9.25-2.72,5.21-1.24,5.23-.85,7.76-1.77,3.35-1.22,3.34-1.9,6.39-2.85,3.13-.98,4.03-.54,7.49-1.36,1.65-.39,4.08-1.12,6.94-2.59-.1,1.89-.41,4.46-1.36,7.35-.76,2.32-1.83,5.45-4.62,8.43-1.98,2.11-4.02,3.3-5.42,4.01h0c-.25.13-.48.25-.69.35-3.85,1.86-7.46,2.27-9.79,2.32-1.36.18-4.64.81-7.76,3.4-2.95,2.45-4.17,5.36-4.62,6.66.12.7.38,1.68,1.09,2.59,1.4,1.81,3.71,2.27,7.62,2.59,6.15.51,9.79.27,9.79.27,7.14-.46,12.53-1.55,13.6-1.77,1.67-.34,3.25-.7,4.71-1.07,4.54-1.13,8.05-2.31,10.53-3.14,17.74-6.01,26.52-9.25,26.52-9.25,16.21-6,24.52-9.08,34.41-13.46,6.08-2.7,11.08-5.09,14.56-6.8.89-.58,1.85-1.24,2.87-2.01,1.76-1.33,3.65-2.95,5.56-4.93,3.21-3.33,5.43-6.63,6.94-9.25,3.04.94,6.07,1.89,9.11,2.85,3.58,1.12,7.16,2.26,10.74,3.4.93.45,2.41,1.36,3,2.99,1.03,2.86-1.4,5.93-2.86,7.76Z"/>
  <path class="cls-1" d="M108.13,147.01c-.36.57-.88,1.25-1.63,1.91-.42.36-.84.66-1.27.9-.7-.36-1.4-.72-2.1-1.08-1.44-.82-12.76-7.37-18.57-13.57-2.32-2.48-3.37-4.47-3.98-6.12-.93-2.52-.99-4.63-1.02-5.92-.11-5.04,1.58-8.83,2.45-10.71,1.17-2.54,2.58-4.61,3.97-6.27.62,5.63,1.85,10.26,2.97,13.65,1.38,4.17,3.53,10.46,8.7,17.14,3.71,4.79,7.62,8.03,10.48,10.07Z"/>
  <path class="cls-1" d="M155.33,119.94c-.09,1.89-.41,4.46-1.36,7.35-.76,2.32-1.83,5.45-4.63,8.44-1.98,2.11-4.02,3.29-5.42,4.01h0c-1.67.14-2.99.06-3.96-.06-1.39-.17-4.17-.69-4.29-.72-1.61-.3-1.95-.4-2.55-.51-4.89-.86-7.39,1.41-10.51-.2-1.09-.57-1.35-1.14-1.43-1.43-.33-1.14.68-2.38,1.23-3.06,1.22-1.51,2.47-1.98,2.35-2.35-.07-.21-.57-.36-2.45-.1-1.88.09-3.76.17-5.65.26.27-.11.56-.22.85-.33.72-.27,3.85-1.43,9.25-2.72,5.2-1.24,5.22-.85,7.75-1.77,3.35-1.22,3.35-1.9,6.39-2.86,3.13-.98,4.02-.54,7.48-1.36,1.66-.4,4.08-1.13,6.94-2.58Z"/>
  <path class="cls-1" d="M69.66,122.52c-1.04,1.34-1.43,4.57-1.43,5.71,0,3.73,4.06,4.63,3.78,8.37-.05.62-.13.27-.82,2.55-.98,3.27-1.54,5.13-1.33,7.45.1,1.1.27,2.79,1.43,4.39,1.11,1.55,2.61,2.27,3.78,2.75,4.88,2.01,7.76,1.3,13.16,2.45,1.79.38,5.05,1.1,8.77,3.06,4.14,2.18,4.88,3.8,9.18,5.31,1.38.49,2.83.83,5.71,1.53,3.09.75,4.64,1.12,5.92,1.22,4.18.34,8.04-.65,8.26-.71.92-.24,3.27-.93,5.82-.71.64.05,1.45.18,1.94.82.47.6.51,1.46.31,2.04-.54,1.52-3.07,1.92-4.69,2.14-6.61.91-9.92,1.37-13.26.92-2.03-.27-7.05-1-12.35-4.08-3.33-1.94-3.74-3.04-7.24-4.49-3.12-1.29-6.17-1.81-8.16-2.14-2.58-.44-2.63-.24-6.63-.82-3.5-.51-5.29-.77-7.04-1.43-1.63-.61-3.71-1.41-5.71-3.37-2.34-2.28-3.21-4.8-3.47-5.61-.38-1.21-1.83-5.82.41-9.08,1.13-1.65,2.54-1.98,2.65-3.57.06-.91-.33-1.73-1.12-3.37-.72-1.49-.94-1.47-1.43-2.55-.35-.78-1.08-2.43-.92-4.59.14-1.92.9-3.26,1.33-3.98.42-.72,1.63-2.78,2.65-2.55.48.11.88.7.92,1.22.04.56-.32,1.01-.41,1.12Z"/>
  <path class="cls-1" d="M246.76,120.38c-1.63,2.5-3.83,5.09-6.82,7.35-1.57,1.19-2.87,1.9-3.67,2.34-13.93,7.61-25.3,11.63-25.3,11.63-11.04,3.91-23.65,8.2-37.75,12.65-2.02.53-4.31.95-6.84,1.12-3.05.21-5.91.01-8.52-.43,4.53-1.13,8.05-2.31,10.53-3.15,17.75-6,26.53-9.25,26.53-9.25,16.21-6,24.52-9.09,34.42-13.47,6.09-2.69,11.08-5.09,14.56-6.8.89-.57,1.86-1.24,2.87-2Z"/>
  <path class="cls-2" d="M258.75,90.16s-.02.08-.03.12c-1.06,4.16-2.19,8.63-5.44,13.6-2.28,3.47-4.73,5.87-7.35,8.44-2.9,2.84-5.57,5.01-7.61,6.53-2.45,1.38-5.03,2.75-7.76,4.08-6.32,3.08-12.37,5.48-17.96,7.34-20.54,7.49-41.08,14.96-61.62,22.45-3.15.8-7.43,1.56-12.51,1.5-4.59-.06-8.48-.75-11.43-1.5.43-.93,1.62-3.16,4.21-4.76,2.11-1.32,4.15-1.58,5.17-1.63,2.3-.41,6.43-1.46,10.61-4.5.43-.31,1.24-.91,2.22-1.82,1.36-1.25,3.06-3.08,4.58-5.53,3.13-5,3.78-9.69,4.22-13.2.63-5.06.14-8.95-.27-12.11-.17-1.26-.94-6.74-3.54-13.6-1.88-4.96-3.82-8.32-6.27-12.51-3.13-5.41-4.7-8.11-7.61-11.29-4.62-5.05-9.08-7.55-10.21-8.17-2.83-1.54-5.37-2.44-7.21-2.99-.62.08-1.18.19-1.57.34h0c-.37.14-.6.31-.61.48-.02.37.99.83,2.45,1.09,2.66,1.27,6.29,3.32,10.07,6.53,4.95,4.22,7.69,8.37,10.2,12.25,5.19,7.99,7.69,15.25,8.84,19.17,1.21,4.09,2.46,9.65,2.86,16.33-.62.61-1.6,1.46-3,2.17-1.66.86-3.08,1.09-3.94,1.23-3.94.67-8.06,1.69-10.75,2.59-3,.99-2.35,1.2-5.57,2.32-2.16.74-2.88.79-9.25,2.17,0,0-4.44.96-9.66,2.99-.81.32-2.25.89-3.13,2.32-.46.73-.62,1.45-.73,2.34-.03.25-.06.51-.09.8-.12,1.17-.15,2.91.27,5.03-.72-.36-1.75-.91-2.85-1.77-2.63-2.02-4.02-4.32-5.17-6.39-2.56-4.59-4.09-7.35-5.72-11.97-.49-1.41-2.26-6.62-3.26-13.87-.53-3.8-1.29-9.66-.41-17.28.78-6.68,2.49-11.9,3.82-15.24,1.45-3.66,2.8-6.97,5.85-10.48,2.73-3.13,5.56-4.97,6.79-5.71,1.42-.86,2.84-1.53,5.57-2.59,3.01-1.15,7.27-2.61,12.66-3.95.31.92,1.47,4.09,4.76,5.99.53.31,2.29,1.25,4.77,1.36,2.83.12,4.88-.92,5.39-1.2.02,0,.04-.02.05-.03,2.1-1.15,3.13-2.77,4.22-4.49,1.01-1.6,2.51-4.46,3.12-8.57,16.01-5.07,32.02-10.15,48.02-15.23.38,1.86,1.01,3.29,1.5,4.22.8,1.51,1.52,2.89,3.13,3.94.52.35,1.05.6,1.53.77,1.09.39,2.01.44,2.41.46.65.03,2.39.09,4.22-.95.62-.36,2.33-1.33,2.99-3.27.38-1.11.22-2.11-.13-4.08-.22-1.26-.62-3-1.36-5.03,1.9-.15,4.53-.21,7.62.13,1.56.17,7.3.91,14.01,4.22,5.58,2.74,9.16,5.94,11.29,7.88,2.31,2.1,5.2,4.77,7.89,8.99,2.75,4.31,3.82,7.92,5.44,13.33,1.55,5.18,2.71,9.07,3,14.56.37,7.04-.92,12.42-1.74,15.66Z"/>
  <path class="cls-4" d="M155.2,116.81c-.62.61-1.6,1.46-3,2.17-1.66.86-3.08,1.09-3.94,1.23-3.94.67-8.06,1.69-10.75,2.59-3,.99-2.35,1.2-5.57,2.32-2.16.74-2.88.79-9.25,2.17,0,0-4.44.96-9.66,2.99-.81.32-2.25.89-3.13,2.32-.46.73-.62,1.45-.73,2.34-1.39-2.21-2.99-5-4.51-8.32-4.75-10.36-5.77-19.23-6.32-24.49-.68-6.39-1.25-11.72.31-18.67.71-3.21,1.93-8.39,5.91-13.57,1.45-1.87,4.23-5.4,9.19-7.65,1.88-.85,3.57-1.29,4.8-1.53.95.1,1.89.18,2.84.27-.37.14-.6.31-.61.48-.02.37.99.83,2.45,1.09,2.66,1.27,6.29,3.32,10.07,6.53,4.95,4.22,7.69,8.37,10.2,12.25,5.19,7.99,7.69,15.25,8.84,19.17,1.21,4.09,2.46,9.65,2.86,16.33Z"/>
  <path class="cls-4" d="M203.11,38.26c-2,.63-4.01,1.28-6.03,1.92-8.37,3.21-17.01,6.38-25.91,9.49-7.02,2.45-13.92,4.76-20.71,6.94-1.31.35-2.74.62-4.29.82-1.61.2-3.17.27-4.64.23.02,0,.04-.02.05-.03,2.1-1.15,3.13-2.77,4.22-4.49,1.01-1.6,2.51-4.46,3.12-8.57,16.01-5.07,32.02-10.15,48.02-15.23.38,1.86,1.01,3.29,1.5,4.22.8,1.51,1.52,2.89,3.13,3.94.52.35,1.05.6,1.53.77Z"/>
  <path class="cls-4" d="M258.75,90.16s-.02.08-.03.12c-1.06,4.16-2.19,8.63-5.44,13.6-2.28,3.47-4.73,5.87-7.35,8.44-2.9,2.84-5.57,5.01-7.61,6.53-2.45,1.38-5.03,2.75-7.76,4.08-6.32,3.08-12.37,5.48-17.96,7.34-20.54,7.49-41.08,14.96-61.62,22.45-3.15.8-7.43,1.56-12.51,1.5-4.59-.06-8.48-.75-11.43-1.5.43-.93,1.62-3.16,4.21-4.76,2.11-1.32,4.15-1.58,5.17-1.63,2.3-.41,6.43-1.46,10.61-4.5.43-.31,1.24-.91,2.22-1.82,3.97-1.04,8.65-2.32,13.87-3.82,4.78-1.38,20.38-5.98,43.26-14.59,17.21-6.47,25.95-9.8,32.75-14.28,8.69-5.73,15.13-12.01,19.62-17.16Z"/>
  <path class="cls-2" d="M210.01,32.46c-.05.62-.15,1.67-.95,2.45-1.13,1.11-2.85.89-3.4.82-2.07-.27-3.33-1.74-3.67-2.17-.27-.81-.62-1.81-1.06-2.97-.26-.64-.54-1.34-.85-2.07-1.47-3.43-2.31-5.39-4.08-7.62-.44-.56-2.15-2.65-5.04-4.62-1.56-1.07-3.43-2.35-6.26-3-2.08-.46-3.86-.39-5.03-.27.62-.41,1.3-.83,2.04-1.22,1.58-.85,3.09-1.43,4.46-1.84h0c.43-.13.85-.25,1.25-.35-3.02.04-7.55.44-12.66,2.32-5.25,1.92-8.64,4.51-11.84,6.94-3.66,2.79-7.38,5.61-10.61,10.61-1.02,1.59-3.05,4.73-4.35,9.25-.62,2.15-1.34,5.53-3.12,10.21-.5,1.31-.98,2.43-2.04,3.54-.48.49-2.71,2.82-6.12,2.59-3.67-.24-5.64-3.2-5.85-3.54.17-2.77.62-6.38,1.77-10.48.81-2.88,2.28-7.15,5.04-11.83.66-1.14,3.93-6.6,10.06-12.24,2.34-2.16,5.99-5.47,11.71-8.3,1.21-.61,5.51-2.67,11.56-3.94,2.18-.46,5.7-1.18,10.2-1.1,4.91.11,10.94.23,16.6,4.22,4.52,3.19,8.02,8.28,9.12,12.79.56,2.3.35,3.83,1.63,6.66.72,1.6,1.67,3.07,1.49,5.17Z"/>
  <path class="cls-4" d="M200.93,30.59c-.25-.65-.53-1.34-.84-2.07-1.47-3.43-2.3-5.39-4.08-7.62-.44-.56-2.16-2.66-5.04-4.63-1.56-1.07-3.44-2.36-6.26-2.99-2.08-.47-3.87-.4-5.03-.27.62-.41,1.3-.83,2.04-1.22,1.57-.84,3.09-1.43,4.46-1.84h0c1.16.33,2.32.71,3.46,1.16,2.1.82,3.66,1.69,5.1,2.96,1.96,1.72,2.99,3.56,3.67,4.79,1.51,2.73,2.05,5.15,2.24,6.22.38,2.05.4,3.92.27,5.5Z"/>
</svg>